<?xml version="1.0" encoding="utf-8"?>
<!-- Generator: Adobe Illustrator 24.2.0, SVG Export Plug-In . SVG Version: 6.00 Build 0)  -->
<svg version="1.1" id="Layer_1" xmlns="http://www.w3.org/2000/svg" xmlns:xlink="http://www.w3.org/1999/xlink" x="0px" y="0px"
	 viewBox="0 0 87.5 100" style="enable-background:new 0 0 87.5 100;" xml:space="preserve">
<style type="text/css">
	.st0{fill:#FFFFFF;}
</style>
<g>
	<path class="st0" d="M31.9,59.4c-0.5-0.1-0.8,0.2-1.1,0.6c-0.8,1-1,2.2-1.1,3.5c0,0.5,0,1.1,0.7,1.2c0.6,0.1,1.1-0.3,1.2-0.8
		c0.3-1.1,0.5-2.2,0.7-3C32.4,60.1,32.6,59.6,31.9,59.4z"/>
	<path class="st0" d="M75.8,59.7c0.1-0.4,0.2-1-0.2-1.2c-0.5-0.3-0.8,0.2-1,0.6c-0.4,0.6-0.7,1.3-0.8,2.3
		C75,61.2,75.5,60.5,75.8,59.7z"/>
	<path class="st0" d="M43.3,60.2c0.1-0.4,0.2-0.8-0.3-1c-0.5-0.1-0.8,0.1-1.1,0.4c-0.9,1-1.1,2.2-1.3,3.4c0,0.6-0.1,1.3,0.7,1.4
		c0.7,0.2,1.1-0.4,1.3-1C42.9,62.3,43.1,61.3,43.3,60.2z"/>
	<path class="st0" d="M44.2,7.1C20,7.1,0.7,26.1,0.7,49.9c0,23.6,19.1,42.9,42.5,42.9c24,0,43.5-19,43.6-42.3
		C86.9,26.6,67.7,7.1,44.2,7.1z M46.5,50.7c0.8,1.6,3.3,2.2,5.3,1.2c1.1-0.5,1.8-1.3,2.4-2.4c1.5-2.7,1.8-5.6,0.9-8.6
		c-0.8-2.8-3.1-4-6.1-3.3c-1.7,0.3-3.3,1.2-5.2,2.3c1-5.2,1.8-9.9,2.7-14.7c0.6-3.3,0.7-3.3,3.8-3c3.9,0.4,7.8,0.5,11.5-1
		c0.9-0.4,0.9,0.1,0.9,0.8c0.2,3.3-1.9,5.7-5.2,5.7c-2.2,0-4.3-0.5-6.4-0.8c-0.7-0.1-1.2-0.1-1.3,0.8c-0.4,2.3-0.9,4.7-1.4,7.2
		c1.1-0.4,2.1-0.7,3.1-1c5.7-1.4,10.1,1.6,10.6,7.5c1,11.8-8.9,15.4-16.9,13.4c-2.5-0.6-3.9-2.7-4-5.3c-0.1-2.6,1.5-5.2,3.7-6.2
		c2.1-0.9,4.5-0.5,6.1,1.2c-0.9,0.4-1.8,0.7-2.6,1.1C46.4,46.7,45.6,48.9,46.5,50.7z M57.3,55.6c-0.2,1.6-0.5,1.8-2.1,1
		C55.9,56.1,56.6,55.8,57.3,55.6z M38.5,62.3c0.5-2.8,1.8-3.9,4.8-3.9c0.8,0,1.8-0.7,2.3,0.1c0.3,0.5-0.1,1.5-0.3,2.3
		c-0.4,2.1-1,4.1-1.2,6.2c-0.2,1.6-1,2.1-2.5,2.2c0.2-1.2,0.4-2.4,0.6-3.6C39.2,66.5,38,65.4,38.5,62.3z M15.1,57.5
		c-0.5-2.7,0.1-5.3,0.9-7.9c1-3.5,2.6-6.8,4.2-10.1c0.3-0.5,0.5-1.1,0.8-1.8c-1.4,0-2.6,0.3-3.7,0.9c-0.5,0.3-1.2,0.5-0.9,1.4
		c0.5,1.4,0,2.6-1.4,3.3c-1.1,0.5-2.3,0.4-3.1-0.7c-1-1.3-0.9-2.7-0.1-4c1.3-2.2,3.6-2.9,5.9-3.4c0.7-0.1,1.5-0.3,2.2-0.2
		c2.3,0.4,3.4-0.8,4.6-2.5c1.7-2.4,3.7-4.5,5.5-6.8c0.5-0.6,1.1-1.1,1.7-0.6c0.6,0.4,0,1.1-0.2,1.5c-1.3,2.5-2.7,4.9-4.1,7.3
		c-0.6,1-0.8,1.8,0.8,1.8c0.4,0,0.9,0.2,1.3,0.3c2.9,0.8,2.9,0.8,3.5-2.1c0.3-1.7,0.6-3.4,1-5c0.5-1.4,0.5-2.2-1.3-1.8
		c0.1-1.7,0.8-2.4,2.3-2.6c2.5-0.4,4.7-1.7,7.1-3.1c-0.7,3.5-1.3,6.7-1.9,10c-1.5,7.6-3,15.1-4.4,22.7c-0.2,1-0.5,1.4-1.5,1.3
		c-1.3,0-2.5,0-3.8,0.1c-1.3,0.1-1.5-0.3-1.3-1.5c0.9-4.4,1.7-8.7,2.6-13.1c0.3-1.4,0.2-2.1-1.4-2.5c-4.6-1.1-4.6-1.2-6.3,3.3
		c-1.2,3.1-2.2,6.2-2.9,9.5c-1.4,6.6-1.2,8.7,1.5,14.4C19.6,65.3,15.8,61.3,15.1,57.5z M34.8,64.7c0.4,0.1,0.1,0.4,0,0.6
		C34.3,66,33.4,66.5,33,66c-1.1-1.1-1.8-0.4-2.8,0c-1.5,0.7-2.7-0.5-2.7-2.7c0-1,0.4-2.2,1.1-3.3c0.8-1.2,4.9-2.3,6-1.6
		c0.4,0.3,0.2,0.7,0.2,1.1c-0.2,1.1-0.5,2.2-0.6,3.4C34.1,63.5,33.5,64.4,34.8,64.7z M32.6,68.3c2.1-0.5,3.4,0.2,4.9,1.6
		c-4.9,0.8-9.5,1.2-14.1-1.3c0.5-0.4,0.9-0.3,1.3-0.2C27.4,69,30.1,69,32.6,68.3z M19.1,67.9c0.2-0.2,0.4-0.1,0.6,0.1
		c4,3.4,8.8,4.1,13.8,3.9c3.5-0.2,6.9-0.5,10.3-1.4c0.5-0.1,0.9-0.2,1.4,0.1c4.4,2.9,9,5.3,14,7.7C47.6,80.8,24.9,76.8,19.1,67.9z
		 M73.7,63.2c0.4,0.9,1,0.7,1.7,0.5c0.3-0.1,0.6-0.2,1-0.3c-1.4,2.6-3.3,2.7-5.3,0.4c-0.1,0-0.2,0-0.2,0c-1.7,1.9-3,2.1-5.1,0.9
		c-0.7-0.4-0.8,0.1-1.1,0.4c-0.8,0.6-1.6,0.6-2.4,0.3c-0.9-0.4-0.9-1.3-0.7-2.1c0.1-0.9,0.3-1.8,0.4-2.7c0.1-0.5,0.3-1.1-0.5-1.2
		c-0.6-0.1-0.9,0.5-1,1c-0.3,1.4-0.6,2.8-0.9,4.2c-0.1,0.4,0,1.1-0.4,1c-1.7-0.3-3.5,0.8-5.1-0.2c-0.6-0.4-0.8-0.4-1.3,0
		c-1,0.6-2,1.2-2.8-0.3c0-0.1,0-0.2,0-0.2c-0.6-0.2-0.8,0.5-1.1,0.6c-0.7,0.4-1.4,0.5-2.1,0.2c-0.7-0.3-0.9-1-0.8-1.8
		c0.3-1.7,0.5-3.4,0.9-5c0.2-1.1,1.2-0.7,1.8-0.7c0.9,0.1,0.3,0.8,0.2,1.2c-0.2,1.3-0.5,2.6-0.7,3.8s0.3,1.4,1.2,0.8
		c0.6-1.4,0.8-3,1-4.5c0.1-1.2,0.7-1.6,1.8-1.4c1.3,0.2,0.4,1.1,0.3,1.6c-0.1,1.1-0.4,2.1-0.6,3.2c-0.1,0.5-0.3,1.1,0.3,1.3
		c0.7,0.2,1.1-0.3,1.2-0.9c0.4-1.4,0.7-2.9,1-4.3c0.1-0.5,0.1-1,0.7-1c0.9-0.1,2-0.4,1.5,1.3c-0.3,1.1-0.5,2.2-0.7,3.4
		c-0.1,0.5-0.5,1.3,0.3,1.5c0.8,0.3,1.3-0.4,1.5-1.1c0.3-1.2,0.7-2.4,0.8-3.7c0.1-1.4,0.9-1.8,2-1.4c0.6,0.2,0.9,0.1,1.4-0.1
		c1.7-0.4,2.5,0.4,2.3,2.1c-0.1,1-0.4,1.9-0.5,2.9c-0.1,0.4-0.2,1,0.4,1.1c0.6,0.1,1-0.3,1.1-0.8c0.2-0.9,0.3-1.8,0.6-2.7
		c0.6-1.6,1.6-2.8,3.4-2.9c0.8-0.1,1.6,0.1,1.8,1.2c0,0.4,0.1,1-0.5,1.1c-0.8,0.2-0.6-0.4-0.7-0.8c-0.2-1-0.7-0.7-1.1-0.2
		c-0.9,1.3-1.4,2.7-1.1,4.2c0.4,2,1.8,0.8,2.8,0.5c0.1-0.1,0.2-0.1,0.3-0.1c0.4-0.5,0.6-1.1,0.8-1.8c0.3-1.7,1-3.3,2.8-4
		c0.8-0.3,1.8-0.5,2.4,0.2c0.6,0.8,0.4,1.8-0.2,2.7c-0.4,0.6-1.1,1.1-1.8,1.3C74,62.1,73.3,62.2,73.7,63.2z"/>
</g>
</svg>
