<?xml version="1.0" encoding="utf-8"?>
<!-- Generator: Adobe Illustrator 21.0.0, SVG Export Plug-In . SVG Version: 6.00 Build 0)  -->
<svg version="1.1" id="Layer_1" xmlns="http://www.w3.org/2000/svg" xmlns:xlink="http://www.w3.org/1999/xlink" x="0px" y="0px"
	 viewBox="0 0 87.5 100" style="enable-background:new 0 0 87.5 100;" xml:space="preserve">
<style type="text/css">
	.st0{fill:#A22330;}
	.st1{fill:#FEFEFE;}
	.st2{fill:#FEFDFD;}
	.st3{fill:#FDFDFD;}
	.st4{fill:#FDFDFC;}
	.st5{fill:#FDFBFB;}
	.st6{fill:#FCFBFA;}
	.st7{fill:#F3E8E4;}
	.st8{fill:#A52A35;}
	.st9{fill:#A42934;}
	.st10{fill:#A7343A;}
</style>
<title>Artboard 46</title>
<g>
	<path class="st0" d="M0.7,49.9C0.7,26.1,20,7.1,44.2,7.1c23.5,0,42.7,19.5,42.6,43.4c-0.1,23.3-19.6,42.3-43.6,42.3
		C19.8,92.8,0.7,73.5,0.7,49.9z"/>
	<path class="st1" d="M32.7,27.1c0.1-1.7,0.8-2.4,2.3-2.6c2.5-0.4,4.7-1.7,7.1-3.1c-0.7,3.5-1.3,6.7-1.9,10
		c-1.5,7.6-3,15.1-4.4,22.7c-0.2,1-0.5,1.4-1.5,1.3c-1.3,0-2.5,0-3.8,0.1c-1.3,0.1-1.5-0.3-1.3-1.5c0.9-4.4,1.7-8.7,2.6-13.1
		c0.3-1.4,0.2-2.1-1.4-2.5c-4.6-1.1-4.6-1.2-6.3,3.3c-1.2,3.1-2.2,6.2-2.9,9.5c-1.4,6.6-1.2,8.7,1.5,14.4c-3.1-0.3-6.9-4.3-7.6-8.1
		c-0.5-2.7,0.1-5.3,0.9-7.9c1-3.5,2.6-6.8,4.2-10.1c0.3-0.5,0.5-1.1,0.8-1.8c-1.4,0-2.6,0.3-3.7,0.9c-0.5,0.3-1.2,0.5-0.9,1.4
		c0.5,1.4,0,2.6-1.4,3.3c-1.1,0.5-2.3,0.4-3.1-0.7c-1-1.3-0.9-2.7-0.1-4c1.3-2.2,3.6-2.9,5.9-3.4c0.7-0.1,1.5-0.3,2.2-0.2
		c2.3,0.4,3.4-0.8,4.6-2.5c1.7-2.4,3.7-4.5,5.5-6.8c0.5-0.6,1.1-1.1,1.7-0.6c0.6,0.4,0,1.1-0.2,1.5c-1.3,2.5-2.7,4.9-4.1,7.3
		c-0.6,1-0.8,1.8,0.8,1.8c0.4,0,0.9,0.2,1.3,0.3c2.9,0.8,2.9,0.8,3.5-2.1c0.3-1.7,0.6-3.4,1-5C34.5,27.5,34.5,26.7,32.7,27.1z"/>
	<path class="st1" d="M43.8,39.9c1-5.2,1.8-9.9,2.7-14.7c0.6-3.3,0.7-3.3,3.8-3c3.9,0.4,7.8,0.5,11.5-1c0.9-0.4,0.9,0.1,0.9,0.8
		c0.2,3.3-1.9,5.7-5.2,5.7c-2.2,0-4.3-0.5-6.4-0.8c-0.7-0.1-1.2-0.1-1.3,0.8c-0.4,2.3-0.9,4.7-1.4,7.2c1.1-0.4,2.1-0.7,3.1-1
		c5.7-1.4,10.1,1.6,10.6,7.5c1,11.8-8.9,15.4-16.9,13.4c-2.5-0.6-3.9-2.7-4-5.3c-0.1-2.6,1.5-5.2,3.7-6.2c2.1-0.9,4.5-0.5,6.1,1.2
		c-0.9,0.4-1.8,0.7-2.6,1.1c-2,1.1-2.8,3.3-1.9,5.1c0.8,1.6,3.3,2.2,5.3,1.2c1.1-0.5,1.8-1.3,2.4-2.4c1.5-2.7,1.8-5.6,0.9-8.6
		c-0.8-2.8-3.1-4-6.1-3.3C47.3,37.9,45.7,38.8,43.8,39.9z"/>
	<path class="st1" d="M59.2,78.3c-11.6,2.5-34.3-1.5-40.1-10.4c0.2-0.2,0.4-0.1,0.6,0.1c4,3.4,8.8,4.1,13.8,3.9
		c3.5-0.2,6.9-0.5,10.3-1.4c0.5-0.1,0.9-0.2,1.4,0.1C49.6,73.5,54.2,75.9,59.2,78.3z"/>
	<path class="st2" d="M49.4,64c0.6-1.4,0.8-3,1-4.5c0.1-1.2,0.7-1.6,1.8-1.4c1.3,0.2,0.4,1.1,0.3,1.6c-0.1,1.1-0.4,2.1-0.6,3.2
		c-0.1,0.5-0.3,1.1,0.3,1.3c0.7,0.2,1.1-0.3,1.2-0.9c0.4-1.4,0.7-2.9,1-4.3c0.1-0.5,0.1-1,0.7-1c0.9-0.1,2-0.4,1.5,1.3
		c-0.3,1.1-0.5,2.2-0.7,3.4c-0.1,0.5-0.5,1.3,0.3,1.5c0.8,0.3,1.3-0.4,1.5-1.1c0.3-1.2,0.7-2.4,0.8-3.7c0.1-1.4,0.9-1.8,2-1.4
		c0.6,0.2,0.9,0.1,1.4-0.1c1.7-0.4,2.5,0.4,2.3,2.1c-0.1,1-0.4,1.9-0.5,2.9c-0.1,0.4-0.2,1,0.4,1.1c0.6,0.1,1-0.3,1.1-0.8
		c0.2-0.9,0.3-1.8,0.6-2.7c0.6-1.6,1.6-2.8,3.4-2.9c0.8-0.1,1.6,0.1,1.8,1.2c0,0.4,0.1,1-0.5,1.1c-0.8,0.2-0.6-0.4-0.7-0.8
		c-0.2-1-0.7-0.7-1.1-0.2c-0.9,1.3-1.4,2.7-1.1,4.2c0.4,2,1.8,0.8,2.8,0.5c0.2-0.1,0.4-0.1,0.5,0.1c-1.7,1.9-3,2.2-5.1,1
		c-0.7-0.4-0.8,0.1-1.1,0.4c-0.8,0.6-1.6,0.6-2.4,0.3c-0.9-0.4-0.9-1.3-0.7-2.1c0.1-0.9,0.3-1.8,0.4-2.7c0.1-0.5,0.3-1.1-0.5-1.2
		c-0.6-0.1-0.9,0.5-1,1c-0.3,1.4-0.6,2.8-0.9,4.2c-0.1,0.4,0,1.1-0.4,1c-1.7-0.3-3.5,0.8-5.1-0.2c-0.6-0.4-0.8-0.4-1.3,0
		c-1,0.6-2,1.2-2.8-0.3C50.1,64.4,49.2,64.7,49.4,64z"/>
	<path class="st3" d="M41.6,69.2c0.2-1.2,0.4-2.4,0.6-3.6c-3,0.9-4.2-0.2-3.7-3.3c0.5-2.8,1.8-3.9,4.8-3.9c0.8,0,1.8-0.7,2.3,0.1
		c0.3,0.5-0.1,1.5-0.3,2.3c-0.4,2.1-1,4.1-1.2,6.2C43.9,68.6,43.1,69.1,41.6,69.2z"/>
	<path class="st4" d="M27.5,63.3c0-1,0.4-2.2,1.1-3.3c0.8-1.2,4.9-2.3,6-1.6c0.4,0.3,0.2,0.7,0.2,1.1c-0.2,1.1-0.5,2.2-0.6,3.4
		c-0.1,0.6-0.7,1.5,0.6,1.8c0.4,0.1,0.1,0.4,0,0.6C34.3,66,33.4,66.5,33,66c-1.1-1.1-1.8-0.4-2.8,0C28.7,66.7,27.5,65.5,27.5,63.3z"
		/>
	<path class="st5" d="M71.1,63.8c-0.2,0-0.3-0.1-0.5-0.1c0.5-0.5,0.7-1.2,0.9-2c0.3-1.7,1-3.3,2.8-4c0.8-0.3,1.8-0.5,2.4,0.2
		c0.6,0.8,0.4,1.8-0.2,2.7c-0.4,0.6-1.1,1.1-1.8,1.3c-0.7,0.2-1.4,0.3-1,1.3c0.4,0.9,1,0.7,1.7,0.5c0.3-0.1,0.6-0.2,1-0.3
		C75,66,73.1,66.1,71.1,63.8z"/>
	<path class="st6" d="M37.5,69.9c-4.9,0.8-9.5,1.2-14.1-1.3c0.5-0.4,0.9-0.3,1.3-0.2c2.7,0.6,5.4,0.6,7.9-0.1
		C34.7,67.8,36,68.5,37.5,69.9z"/>
	<path class="st4" d="M49.4,64c0.2,0.3,0.4,0.6,0.7,0.9c-0.7-0.4-0.9,0.4-1.2,0.6c-0.7,0.4-1.4,0.5-2.1,0.2c-0.7-0.3-0.9-1-0.8-1.8
		c0.3-1.7,0.5-3.4,0.9-5c0.2-1.1,1.2-0.7,1.8-0.7c0.9,0.1,0.3,0.8,0.2,1.2c-0.2,1.3-0.5,2.6-0.7,3.8C48,64.4,48.5,64.6,49.4,64z"/>
	<path class="st7" d="M55.2,56.6c0.7-0.5,1.4-0.8,2.1-1C57.1,57.2,56.8,57.4,55.2,56.6z"/>
	<path class="st8" d="M40.6,63c0.2-1.2,0.4-2.4,1.3-3.4c0.3-0.3,0.6-0.5,1.1-0.4c0.5,0.2,0.4,0.6,0.3,1c-0.2,1.1-0.4,2.1-0.7,3.2
		c-0.2,0.6-0.6,1.2-1.3,1C40.5,64.3,40.6,63.6,40.6,63z"/>
	<path class="st9" d="M32.3,60.9c-0.2,0.8-0.4,1.9-0.7,3c-0.1,0.5-0.6,0.9-1.2,0.8c-0.7-0.1-0.7-0.7-0.7-1.2
		c0.1-1.3,0.3-2.5,1.1-3.5c0.3-0.4,0.6-0.7,1.1-0.6C32.6,59.6,32.4,60.1,32.3,60.9z"/>
	<path class="st10" d="M73.8,61.4c0.1-1,0.4-1.7,0.8-2.3c0.2-0.4,0.5-0.9,1-0.6c0.4,0.2,0.3,0.8,0.2,1.2
		C75.5,60.5,75,61.2,73.8,61.4z"/>
</g>
</svg>
